<svg width="401" height="480" viewBox="0 0 401 480" fill="none" xmlns="http://www.w3.org/2000/svg">
<g filter="url(#filter0_f)">
<path d="M211.272 89.6655C211.272 89.6655 203.185 43.5391 149.645 43.8386C96.2556 44.1381 61.0617 93.11 69.673 145.901C77.0113 190.754 112.205 206.854 112.205 206.854" stroke="#384261" stroke-width="1.5" stroke-miterlimit="1.9042" stroke-linecap="round" stroke-linejoin="round"/>
<path d="M200.189 21L379.453 314.906H320.522H21L200.189 21Z" stroke="#384261" stroke-width="2" stroke-miterlimit="1.9042" stroke-linecap="round" stroke-linejoin="round"/>
<path fill-rule="evenodd" clip-rule="evenodd" d="M161.176 50.4279C115.274 51.626 60.1622 98.8756 78.2832 164.621C92.3608 215.539 141.482 222.354 162.898 214.042C198.017 200.339 200.938 154.212 168.065 138.412C138.562 124.185 150.318 83.8246 178.473 84.7232C192.85 85.1724 198.092 91.9117 204.307 94.9069C203.409 96.7789 202.81 98.8007 202.81 100.972C202.81 106.588 206.104 111.381 210.897 113.552C206.853 119.917 205.356 131.748 208.5 140.809C216.588 164.097 230.59 164.77 230.59 164.77C230.59 164.77 255.226 167.99 264.511 145.676C273.796 123.362 254.552 102.545 238.977 100.074C236.206 99.6244 233.286 99.6993 230.366 100.223C229.916 92.96 224.001 87.1942 216.588 87.1942C214.94 87.1942 213.368 87.4937 211.87 88.0928C209.998 79.0322 200.713 49.3795 161.176 50.4279Z" fill="#384261"/>
<path fill-rule="evenodd" clip-rule="evenodd" d="M216.589 87.1196C215.091 87.1196 213.594 87.4192 212.171 87.8684L211.946 88.0931C211.946 88.0931 220.258 86.5955 225.05 94.4579C227.821 98.9508 226.773 102.096 226.773 102.096C226.773 102.096 246.841 97.1536 257.698 119.318C269.155 142.606 251.034 159.978 251.034 159.978L253.056 159.604C257.474 156.684 261.667 152.341 264.438 145.751C273.723 123.437 254.478 102.62 238.903 100.149C236.133 99.6996 233.212 99.7744 230.292 100.299C229.992 92.8854 224.002 87.1196 216.589 87.1196Z" fill="#9AD5E4" fill-opacity="0.4799"/>
<path opacity="0.76" fill-rule="evenodd" clip-rule="evenodd" d="M161.176 50.428C115.274 51.6261 60.1622 98.8757 78.2832 164.621C91.4622 212.395 135.567 221.38 158.63 215.39L164.246 208.651C164.246 208.651 122.238 212.919 100.598 183.566C73.7904 147.323 85.0974 99.2501 112.354 73.1917C130.55 55.8194 152.64 51.1019 170.836 50.8773C167.765 50.5029 164.621 50.2783 161.176 50.428Z" fill="white" fill-opacity="0.7147"/>
<path fill-rule="evenodd" clip-rule="evenodd" d="M80.3053 312.735C77.7594 309.215 107.038 293.865 107.038 293.865L112.953 277.99L139.386 286.751L133.321 300.529C133.321 300.529 133.246 312.66 130.55 314.307C127.854 315.954 109.284 314.457 109.284 314.457C109.284 314.457 82.6266 315.954 80.3053 312.735Z" fill="#E76586"/>
<path fill-rule="evenodd" clip-rule="evenodd" d="M260.843 459.95C256.799 461.447 250.135 428.949 250.135 428.949L236.507 418.84L252.232 395.927L263.838 405.586C263.838 405.586 275.445 409.031 276.343 412.026C277.167 415.021 270.577 432.469 270.577 432.469C270.577 432.469 264.587 458.527 260.843 459.95Z" fill="#E76586"/>
<path fill-rule="evenodd" clip-rule="evenodd" d="M260.843 459.95C256.799 461.447 250.135 428.949 250.135 428.949L236.507 418.84L252.232 395.927L263.838 405.586C263.838 405.586 275.445 409.031 276.343 412.026C277.167 415.021 270.577 432.469 270.577 432.469C270.577 432.469 264.587 458.527 260.843 459.95Z" fill="#E76586"/>
<path fill-rule="evenodd" clip-rule="evenodd" d="M164.996 169.263C160.952 169.114 156.909 169.937 153.09 171.809C148.522 174.056 143.28 179.597 137.814 189.856C123.886 215.839 97.5283 275.744 97.5283 275.744L154.288 295.737L168.665 246.54L188.583 291.543C194.948 303.599 209.999 308.541 222.13 302.551C234.26 296.56 238.978 281.884 232.613 269.828L186.711 182.892C182.218 174.505 173.757 169.563 164.996 169.263Z" fill="#709ABE"/>
<path fill-rule="evenodd" clip-rule="evenodd" d="M230.665 253.204C224.001 253.13 206.928 254.403 202.286 260.318L153.464 337.595C145.227 348.078 146.35 363.878 155.935 372.789C158.331 375.035 226.322 440.481 226.322 440.481L261.666 387.915L202.81 351.298C202.81 351.298 227.521 323.742 241.748 301.727C258.97 275.07 245.192 255.451 245.192 255.451C245.192 255.451 235.832 253.279 230.665 253.204Z" fill="#709ABE"/>
<path fill-rule="evenodd" clip-rule="evenodd" d="M257.175 158.481C257.175 158.481 274.697 196.67 265.936 224.675C261.817 237.854 245.643 256.125 245.643 256.125C245.643 256.125 231.865 260.842 214.193 248.712C203.71 241.523 197.42 229.093 197.495 224.675C197.495 215.914 203.41 215.165 203.41 215.165L200.79 162.075L257.175 158.481Z" fill="#D0A4B1"/>
<path fill-rule="evenodd" clip-rule="evenodd" d="M264.211 178.773L262.789 184.015L256.574 191.728C256.574 191.728 264.286 199.665 258.446 219.284C252.605 238.902 236.506 257.697 236.506 257.697C236.506 257.697 242.496 263.463 239.127 279.188C235.233 296.86 190.005 353.32 190.005 353.32L252.006 402.516L261.74 387.99L202.884 351.373C202.884 351.373 227.595 323.892 241.822 301.802C257.697 277.241 247.363 258.896 245.566 256.125C245.566 256.125 261.74 237.854 265.859 224.675C270.576 209.849 267.806 192.177 264.211 178.773Z" fill="#9AD5E4" fill-opacity="0.4799"/>
<path d="M218.834 229.543C214.116 223.852 206.254 221.381 198.017 220.482C197.867 220.931 197.792 221.456 197.643 221.98C205.58 222.803 213.143 225.125 217.636 230.516C225.199 239.577 226.247 247.214 225.049 254.478C225.498 254.628 226.022 254.852 226.472 255.002C227.819 247.364 226.771 239.127 218.834 229.543Z" fill="#FDE8E7"/>
<path d="M240.474 201.238C247.363 209.25 253.878 216.813 268.03 214.192C268.105 213.668 268.105 213.144 268.18 212.619C254.552 215.315 248.561 208.351 241.597 200.264C233.885 191.278 225.124 181.17 204.157 182.817L202.51 184.165V184.464C202.66 184.464 202.734 184.389 202.884 184.389C224.15 182.218 232.762 192.327 240.474 201.238Z" fill="#FDE8E7"/>
<path d="M252.529 182.667C253.727 182.667 255 182.592 256.273 182.443C259.194 182.143 261.889 181.095 264.435 179.672C264.285 179.148 264.136 178.624 264.061 178.174C261.59 179.672 258.969 180.646 256.123 180.945C242.046 182.518 233.435 175.703 225.348 160.503L223.7 160.578C230.664 173.981 239.126 182.667 252.529 182.667Z" fill="#FDE8E7"/>
<path d="M233.585 222.653C237.105 236.132 243.245 244.668 251.931 247.888C252.006 247.888 252.156 247.963 252.231 247.963C252.53 247.589 252.83 247.139 253.204 246.69C252.979 246.615 252.755 246.54 252.455 246.465C244.293 243.395 238.378 235.233 235.008 222.204C229.767 202.286 220.257 200.04 203.483 202.735C203.334 202.735 203.184 202.81 203.034 202.81L203.109 204.308C203.334 204.233 203.558 204.233 203.783 204.158C220.032 201.687 228.643 203.709 233.585 222.653Z" fill="#FDE8E7"/>
<path fill-rule="evenodd" clip-rule="evenodd" d="M241.748 153.014C247.064 153.838 250.584 157.956 249.61 162.374L247.289 172.034C246.315 176.377 238.378 186.711 231.04 184.389C223.477 181.993 232.912 166.867 232.912 166.867L230.516 159.529C231.414 155.111 236.431 152.191 241.748 153.014Z" fill="#FAD1CB"/>
<path fill-rule="evenodd" clip-rule="evenodd" d="M246.914 160.503C246.914 160.503 237.704 162 231.339 157.657C224.899 153.389 225.873 157.507 225.873 157.507L228.194 167.242L223.027 170.087L222.354 178.025C222.354 178.025 225.648 178.174 229.916 176.228C234.11 174.281 235.008 174.206 239.277 170.237C243.545 166.418 246.914 160.503 246.914 160.503Z" fill="#045377" fill-opacity="0.2955"/>
<path fill-rule="evenodd" clip-rule="evenodd" d="M193.001 174.954C193.001 174.954 163.648 222.428 179.822 231.04C193.75 238.453 205.506 219.134 213.069 202.885C219.284 189.556 223.028 177.275 224.376 171.285C224.376 171.285 231.34 167.541 228.12 161.101C224.75 154.587 222.279 153.314 220.782 146.35C219.284 139.386 220.932 131.374 220.782 126.956C220.632 123.062 214.192 129.502 211.796 138.038C208.801 148.821 211.047 154.362 211.047 154.362C211.047 154.362 207.977 153.613 204.757 157.058C201.388 160.727 193.525 175.403 193.525 175.403L193.001 174.954Z" fill="#FAD1CB"/>
<path fill-rule="evenodd" clip-rule="evenodd" d="M220.781 120.142C220.781 120.142 215.989 128.528 217.861 134.818C220.107 142.157 217.411 140.509 218.984 147.174C220.781 155.036 224.75 162.899 236.431 160.877C246.69 159.08 249.011 147.099 248.711 143.205C248.187 137.514 245.716 128.753 245.716 128.753C245.716 128.753 235.832 130.85 228.494 126.282C221.23 121.714 220.781 120.142 220.781 120.142Z" fill="#FAD1CB"/>
<path fill-rule="evenodd" clip-rule="evenodd" d="M295.364 233.511C280.013 242.721 264.588 217.861 256.276 202.061C249.537 189.107 245.269 176.976 243.621 171.061C243.621 171.061 236.133 167.392 239.278 159.454C242.348 151.517 245.044 150.993 246.167 143.954C247.29 136.915 245.269 131 245.269 126.582C245.269 122.688 252.008 128.753 254.704 137.14C258.148 147.698 256.201 153.389 256.201 153.389C256.201 153.389 271.327 149.645 278.291 159.904C285.33 170.387 315.581 221.38 295.364 233.511Z" fill="#FAD1CB"/>
<path d="M173.083 124.335C173.083 124.335 176.003 126.881 178.699 127.031C181.095 127.106 183.042 124.784 183.042 124.784C183.042 124.784 181.545 127.63 181.994 129.727C182.368 131.823 185.738 135.642 185.738 135.642C185.738 135.642 181.619 132.572 179.897 132.497C178.25 132.422 174.88 134.594 174.88 134.594C174.88 134.594 177.127 131.449 176.602 129.502C176.003 127.405 173.083 124.335 173.083 124.335Z" stroke="#E4003B" stroke-width="1.9042" stroke-miterlimit="1.9042" stroke-linecap="round" stroke-linejoin="round"/>
<path d="M263.912 72.4429C263.912 72.4429 262.115 77.385 263.388 80.9044C264.511 84.0494 268.48 85.2474 268.48 85.2474C268.48 85.2474 264.137 84.7982 261.74 86.3706C259.344 87.9431 256.199 94.1582 256.199 94.1582C256.199 94.1582 257.996 87.3441 257.173 85.1726C256.424 83.001 252.006 79.856 252.006 79.856C252.006 79.856 257.098 81.129 259.269 79.4068C261.441 77.6845 263.912 72.4429 263.912 72.4429Z" stroke="#E4003B" stroke-width="1.9042" stroke-miterlimit="1.9042" stroke-linecap="round" stroke-linejoin="round"/>
<path d="M229.618 95.6558C244.819 96.4046 256.126 100.972 256.575 107.337C257.174 115.274 240.7 122.912 219.734 124.485C198.842 126.057 181.32 120.89 180.796 113.028C180.346 107.112 189.707 101.347 202.886 98.1268" stroke="#E4003B" stroke-width="1.5" stroke-miterlimit="1.9042" stroke-linecap="round" stroke-linejoin="round"/>
<path fill-rule="evenodd" clip-rule="evenodd" d="M161.326 229.093L186.187 285.927L197.119 268.93C197.119 268.93 194.199 265.71 181.244 253.804C168.14 241.823 161.326 229.093 161.326 229.093Z" fill="#045377" fill-opacity="0.2045"/>
<path fill-rule="evenodd" clip-rule="evenodd" d="M256.125 153.539L252.98 162.824L273.498 188.058C273.498 188.058 273.872 183.041 279.488 179.597C283.607 177.126 288.773 177.5 288.773 177.5C288.773 177.5 278.964 158.481 273.198 155.261C265.111 150.693 256.125 153.539 256.125 153.539Z" fill="#BA8092"/>
<path fill-rule="evenodd" clip-rule="evenodd" d="M210.823 154.212C210.823 154.212 206.405 152.34 199.141 164.097C193.9 172.408 190.904 179.148 190.904 179.148C190.904 179.148 194.948 179.522 196.895 180.795C199.141 182.293 201.163 183.566 201.163 183.566L213.893 163.273C213.893 163.273 213.219 161.176 212.395 159.08C211.571 156.983 210.823 154.212 210.823 154.212Z" fill="#BA8092"/>
<path d="M235.608 147.099C235.608 146.425 236.207 145.826 236.881 145.826C237.63 145.826 238.154 146.425 238.154 147.099C238.154 147.773 237.555 148.372 236.881 148.372C236.207 148.372 235.608 147.773 235.608 147.099Z" stroke="#384261" stroke-width="2" stroke-miterlimit="1.9042" stroke-linecap="round" stroke-linejoin="round"/>
<path d="M173.083 124.335C173.083 124.335 176.003 126.881 178.699 127.031C181.095 127.106 183.042 124.784 183.042 124.784C183.042 124.784 181.545 127.63 181.994 129.727C182.368 131.823 185.738 135.642 185.738 135.642C185.738 135.642 181.619 132.572 179.897 132.497C178.25 132.422 174.88 134.594 174.88 134.594C174.88 134.594 177.127 131.449 176.602 129.502C176.003 127.405 173.083 124.335 173.083 124.335Z" stroke="#E4003B" stroke-miterlimit="1.9042" stroke-linecap="round" stroke-linejoin="round"/>
<path d="M263.912 72.4429C263.912 72.4429 262.115 77.385 263.388 80.9044C264.511 84.0494 268.48 85.2474 268.48 85.2474C268.48 85.2474 264.137 84.7982 261.74 86.3706C259.344 87.9431 256.199 94.1582 256.199 94.1582C256.199 94.1582 257.996 87.3441 257.173 85.1726C256.424 83.001 252.006 79.856 252.006 79.856C252.006 79.856 257.098 81.129 259.269 79.4068C261.441 77.6845 263.912 72.4429 263.912 72.4429Z" stroke="#E4003B" stroke-miterlimit="1.9042" stroke-linecap="round" stroke-linejoin="round"/>
<path fill-rule="evenodd" clip-rule="evenodd" d="M256.125 153.539L252.98 162.824L273.498 188.058C273.498 188.058 273.872 183.041 279.488 179.597C283.607 177.126 288.773 177.5 288.773 177.5C288.773 177.5 278.964 158.481 273.198 155.261C265.111 150.693 256.125 153.539 256.125 153.539Z" fill="#D0A4B1"/>
<path fill-rule="evenodd" clip-rule="evenodd" d="M210.823 154.212C210.823 154.212 206.405 152.34 199.141 164.097C193.9 172.408 190.904 179.148 190.904 179.148C190.904 179.148 194.948 179.522 196.895 180.795C199.141 182.293 201.163 183.566 201.163 183.566L213.893 163.273C213.893 163.273 213.219 161.176 212.395 159.08C211.571 156.983 210.823 154.212 210.823 154.212Z" fill="#D0A4B1"/>
<path d="M226.996 136.391L228.718 139.461" stroke="#384261" stroke-width="2" stroke-miterlimit="1.9042" stroke-linecap="round" stroke-linejoin="round"/>
<path d="M232.836 133.92L234.558 136.541" stroke="#384261" stroke-width="2" stroke-miterlimit="1.9042" stroke-linecap="round" stroke-linejoin="round"/>
<path fill-rule="evenodd" clip-rule="evenodd" d="M228.194 129.127L230.965 126.507L232.088 129.577L228.194 129.127Z" fill="#384261"/>
<path fill-rule="evenodd" clip-rule="evenodd" d="M222.58 133.545L221.98 129.801L225.35 130.4L222.58 133.545Z" fill="#384261"/>
<path fill-rule="evenodd" clip-rule="evenodd" d="M256.574 151.442L255.301 156.159L254.253 159.08C254.253 159.08 265.859 153.838 276.118 167.242C284.505 178.249 304.947 217.711 294.539 229.692C290.046 234.859 284.13 234.185 279.488 232.463C284.58 235.757 289.971 236.806 295.362 233.511C309.665 224.9 298.657 196.894 288.548 177.5C288.623 177.5 288.848 177.5 288.848 177.5C288.848 177.5 284.654 169.488 280.162 162.899C279.488 161.85 278.739 160.577 278.29 159.903C277.241 158.331 275.968 157.133 274.62 156.159C274.171 155.785 273.722 155.411 273.273 155.186C272.898 154.961 272.524 154.886 272.149 154.662C271.925 154.587 271.775 154.512 271.55 154.437C264.661 151.442 258.072 152.94 256.724 153.314C256.649 153.314 256.2 153.389 256.2 153.389C256.2 153.389 256.35 152.64 256.574 151.442Z" fill="#9AD5E4" fill-opacity="0.4799"/>
<path fill-rule="evenodd" clip-rule="evenodd" d="M245.941 125.459C245.567 125.533 245.267 125.908 245.267 126.657C245.267 127.031 245.192 127.855 245.192 128.229C246.915 128.529 248.787 127.555 251.707 139.311C254.328 154.512 247.888 165.37 247.888 165.37C247.888 165.37 264.362 180.87 275.669 195.846C281.285 203.259 288.024 212.619 288.024 212.619C288.024 212.619 283.831 201.612 274.995 190.08C260.543 171.211 253.13 162.824 253.13 162.824L254.478 159.08L256.275 153.539C256.275 153.539 258.222 147.848 254.777 137.29C252.456 130.401 247.663 125.159 245.941 125.459Z" fill="#9AD5E4" fill-opacity="0.4799"/>
<path fill-rule="evenodd" clip-rule="evenodd" d="M266.833 406.56C268.78 411.128 270.278 417.792 270.128 427.302C270.128 430.222 269.978 432.993 269.753 435.688C270.203 434.041 270.502 432.468 270.502 432.468C270.502 432.468 277.167 415.021 276.268 412.026C275.669 410.004 270.278 407.833 266.833 406.56Z" fill="white" fill-opacity="0.5001"/>
<path opacity="0.52" fill-rule="evenodd" clip-rule="evenodd" d="M164.996 169.263C161.027 169.114 156.909 169.937 153.09 171.809C148.522 174.056 143.28 179.597 137.814 189.856C123.886 215.839 97.5283 275.744 97.5283 275.744L114.901 281.884C121.415 257.173 137.14 201.986 152.94 181.394C160.128 172.109 172.559 173.831 183.042 177.725C178.324 172.483 171.735 169.488 164.996 169.263Z" fill="white" fill-opacity="0.7147"/>
<path fill-rule="evenodd" clip-rule="evenodd" d="M107.262 293.416L107.112 293.79C107.112 293.79 77.759 309.215 80.305 312.66C81.3533 314.083 86.9693 314.532 93.0347 314.682C91.6868 313.484 91.0129 312.136 91.3873 310.488C92.8849 303.599 107.412 293.94 107.412 293.94L107.262 293.416Z" fill="white" fill-opacity="0.3245"/>
<path fill-rule="evenodd" clip-rule="evenodd" d="M111.831 280.761C111.831 280.761 124.411 286.751 128.604 291.693C131.749 295.437 133.696 299.705 133.696 299.705L138.039 289.896L111.831 280.761Z" fill="#045377" fill-opacity="0.2955"/>
<path fill-rule="evenodd" clip-rule="evenodd" d="M238.826 420.787C238.826 420.787 248.111 410.379 253.952 407.683C258.445 405.661 263.087 404.987 263.087 404.987L254.851 398.173L238.826 420.787Z" fill="#045377" fill-opacity="0.2955"/>
<path d="M184.313 113.777C184.313 113.777 207.526 119.018 215.164 139.012C225.872 166.942 235.008 184.165 256.199 181.768C277.39 179.372 288.547 141.258 288.547 141.258" stroke="#FDE8E7" stroke-width="1.9042" stroke-miterlimit="1.9042" stroke-linecap="round" stroke-linejoin="round"/>
<path d="M225.349 138.338C225.349 138.338 219.358 152.939 208.651 163.123C196.819 174.355 179.222 180.87 157.807 173.307" stroke="#FDE8E7" stroke-width="1.9042" stroke-miterlimit="1.9042" stroke-linecap="round" stroke-linejoin="round"/>
<path fill-rule="evenodd" clip-rule="evenodd" d="M223.027 150.918L221.605 144.628C221.605 144.628 220.931 144.927 221.68 144.628C222.728 144.179 224.001 143.954 225.274 144.253C228.643 144.852 230.89 148.072 230.216 151.442C229.767 153.838 228.044 155.635 225.873 156.234C224.974 156.459 225.798 156.159 225.798 156.159L223.027 150.918Z" fill="#E76586"/>
<path fill-rule="evenodd" clip-rule="evenodd" d="M240.249 137.664C240.773 134.893 243.02 132.947 245.641 132.647C246.24 132.572 245.79 132.722 245.79 132.722L246.314 139.536L245.341 144.927C245.341 144.927 246.09 145.077 245.191 144.927C241.896 144.254 239.65 141.034 240.249 137.664Z" fill="#E76586"/>
<path d="M253.279 162.599C253.279 162.599 258.97 150.244 255.825 139.685C252.68 129.127 248.187 124.859 245.716 125.458C243.919 125.907 245.192 128.903 245.791 132.272C246.989 138.637 246.165 145.152 243.919 149.57C241.672 153.988 237.03 160.802 238.977 165.519C240.1 169.188 243.32 169.862 243.32 169.862C243.32 169.862 267.057 246.839 294.538 233.96C309.739 226.846 299.031 197.268 287.874 176.077C280.011 161.176 274.47 155.86 270.651 153.988C264.661 151.067 256.049 153.463 256.049 153.463" stroke="#384261" stroke-width="1.5" stroke-miterlimit="1.9042" stroke-linecap="round" stroke-linejoin="round"/>
<path d="M224.375 171.435C224.375 171.435 230.44 168.29 228.868 163.048C227.37 157.807 221.679 151.816 221.38 143.43C221.08 135.043 222.503 129.801 221.005 127.555C219.508 125.309 215.689 127.555 213.218 133.096C205.954 149.121 214.116 163.498 214.116 163.498" stroke="#384261" stroke-width="1.5" stroke-miterlimit="1.9042" stroke-linecap="round" stroke-linejoin="round"/>
<path d="M215.091 146.125C215.091 146.125 215.915 129.352 221.081 128.603" stroke="#384261" stroke-width="1.5" stroke-miterlimit="1.9042" stroke-linecap="round" stroke-linejoin="round"/>
<path d="M224.451 171.36C224.451 171.36 206.479 236.282 184.39 232.987C165.145 230.066 180.646 198.317 186.262 187.534C190.754 178.998 199.066 161.925 204.308 157.058C207.977 153.688 210.748 154.362 210.748 154.362" stroke="#384261" stroke-width="1.5" stroke-miterlimit="1.9042" stroke-linecap="round" stroke-linejoin="round"/>
<path d="M214.117 163.573C214.117 163.573 203.259 178.998 196.221 190.829C189.182 202.66 185.962 210.298 185.962 210.298" stroke="#384261" stroke-width="1.5" stroke-miterlimit="1.9042" stroke-linecap="round" stroke-linejoin="round"/>
<path d="M258.597 213.144C254.853 216.813 248.413 221.081 240.7 217.487C230.816 212.919 232.988 200.714 232.988 200.714" stroke="#384261" stroke-width="1.5" stroke-miterlimit="1.9042" stroke-linecap="round" stroke-linejoin="round"/>
<path d="M218.535 203.709C216.588 205.131 214.042 206.554 211.271 207.378" stroke="#384261" stroke-width="1.5" stroke-miterlimit="1.9042" stroke-linecap="round" stroke-linejoin="round"/>
<path d="M198.467 266.084L151.592 340.815" stroke="#384261" stroke-width="1.5" stroke-miterlimit="1.9042" stroke-linecap="round" stroke-linejoin="round"/>
<path d="M160.428 226.847L186.486 285.478" stroke="#384261" stroke-width="1.5" stroke-miterlimit="1.9042" stroke-linecap="round" stroke-linejoin="round"/>
<path d="M288.323 212.919C288.323 212.919 280.012 196.744 273.048 187.384C266.159 177.949 253.279 162.898 253.279 162.898" stroke="#384261" stroke-width="1.5" stroke-miterlimit="1.9042" stroke-linecap="round" stroke-linejoin="round"/>
<path d="M245.267 128.229C251.407 127.48 252.68 145.826 252.68 145.826" stroke="#384261" stroke-width="1.5" stroke-miterlimit="1.9042" stroke-linecap="round" stroke-linejoin="round"/>
<path d="M219.508 87.1195C226.997 80.2305 234.11 77.0855 238.229 79.7063C244.968 84.0494 241.224 102.021 229.842 119.992C227.596 123.586 225.199 126.881 222.728 129.876C212.919 141.782 202.361 148.147 196.969 144.703C190.605 140.659 194.049 123.886 203.933 107.038" stroke="#E4003B" stroke-width="1.5" stroke-miterlimit="1.9042" stroke-linecap="round" stroke-linejoin="round"/>
</g>
<defs>
<filter id="filter0_f" x="0" y="0" width="400.453" height="480" filterUnits="userSpaceOnUse" color-interpolation-filters="sRGB">
<feFlood flood-opacity="0" result="BackgroundImageFix"/>
<feBlend mode="normal" in="SourceGraphic" in2="BackgroundImageFix" result="shape"/>
<feGaussianBlur stdDeviation="10" result="effect1_foregroundBlur"/>
</filter>
</defs>
</svg>
