<svg width="401" height="490" viewBox="0 0 401 490" fill="none" xmlns="http://www.w3.org/2000/svg">
<path d="M212.794 77.4326C212.794 77.4326 203.792 26.0886 144.196 26.422C84.7674 26.7554 45.5925 81.2668 55.1779 140.029C63.3462 189.956 102.521 207.877 102.521 207.877" stroke="#384261" stroke-width="1.5" stroke-miterlimit="1.9042" stroke-linecap="round" stroke-linejoin="round"/>
<path d="M200.458 1L400 328.152H334.403H1L200.458 1Z" stroke="#384261" stroke-width="2" stroke-miterlimit="1.9042" stroke-linecap="round" stroke-linejoin="round"/>
<path fill-rule="evenodd" clip-rule="evenodd" d="M157.033 33.7567C105.939 35.0903 44.5927 87.6846 64.7635 160.867C80.4335 217.545 135.112 225.13 158.95 215.878C198.041 200.625 201.292 149.281 164.701 131.694C131.861 115.857 144.947 70.9311 176.287 71.9313C192.29 72.4315 198.125 79.933 205.043 83.2671C204.043 85.3508 203.376 87.6013 203.376 90.0185C203.376 96.2698 207.043 101.604 212.378 104.021C207.877 111.106 206.21 124.276 209.71 134.361C218.712 160.283 234.299 161.033 234.299 161.033C234.299 161.033 261.721 164.617 272.057 139.779C282.392 114.94 260.971 91.7688 243.634 89.0182C240.55 88.5181 237.3 88.6015 234.049 89.1849C233.549 81.0999 226.964 74.6819 218.712 74.6819C216.879 74.6819 215.128 75.0153 213.461 75.6821C211.378 65.5967 201.042 32.5898 157.033 33.7567Z" fill="#384261"/>
<path fill-rule="evenodd" clip-rule="evenodd" d="M218.713 74.5988C217.046 74.5988 215.379 74.9322 213.795 75.4323L213.545 75.6824C213.545 75.6824 222.797 74.0154 228.131 82.7672C231.215 87.7682 230.048 91.269 230.048 91.269C230.048 91.269 252.386 85.7678 264.472 110.44C277.225 136.362 257.054 155.699 257.054 155.699L259.304 155.282C264.222 152.032 268.89 147.197 271.974 139.862C282.309 115.024 260.888 91.8524 243.551 89.1019C240.467 88.6018 237.217 88.6851 233.966 89.2686C233.632 81.0168 226.964 74.5988 218.713 74.5988Z" fill="#9AD5E4" fill-opacity="0.4799"/>
<path opacity="0.76" fill-rule="evenodd" clip-rule="evenodd" d="M157.033 33.7568C105.939 35.0904 44.5927 87.6848 64.7635 160.867C79.4333 214.045 128.527 224.047 154.199 217.379L160.45 209.877C160.45 209.877 113.69 214.628 89.6021 181.954C59.7625 141.613 72.3485 88.1015 102.688 59.0955C122.942 39.7581 147.531 34.507 167.785 34.2569C164.368 33.8402 160.867 33.5901 157.033 33.7568Z" fill="white" fill-opacity="0.7147"/>
<path fill-rule="evenodd" clip-rule="evenodd" d="M67.0135 325.734C64.1796 321.817 96.7698 304.73 96.7698 304.73L103.354 287.06L132.777 296.812L126.026 312.148C126.026 312.148 125.943 325.651 122.942 327.485C119.941 329.319 99.2703 327.652 99.2703 327.652C99.2703 327.652 69.5974 329.319 67.0135 325.734Z" fill="#E76586"/>
<path fill-rule="evenodd" clip-rule="evenodd" d="M267.973 489.602C263.472 491.269 256.054 455.095 256.054 455.095L240.884 443.843L258.387 418.337L271.307 429.089C271.307 429.089 284.226 432.924 285.226 436.258C286.143 439.592 278.808 459.012 278.808 459.012C278.808 459.012 272.14 488.018 267.973 489.602Z" fill="#E76586"/>
<path fill-rule="evenodd" clip-rule="evenodd" d="M267.973 489.602C263.472 491.269 256.054 455.095 256.054 455.095L240.884 443.843L258.387 418.337L271.307 429.089C271.307 429.089 284.226 432.924 285.226 436.258C286.143 439.592 278.808 459.012 278.808 459.012C278.808 459.012 272.14 488.018 267.973 489.602Z" fill="#E76586"/>
<path fill-rule="evenodd" clip-rule="evenodd" d="M161.284 166.034C156.783 165.868 152.282 166.785 148.031 168.868C142.946 171.369 137.112 177.537 131.027 188.956C115.524 217.879 86.1846 284.559 86.1846 284.559L149.364 306.814L165.368 252.052L187.539 302.146C194.624 315.566 211.377 321.067 224.88 314.399C238.383 307.731 243.634 291.394 236.549 277.975L185.455 181.204C180.454 171.869 171.036 166.368 161.284 166.034Z" fill="#709ABE"/>
<path fill-rule="evenodd" clip-rule="evenodd" d="M234.382 259.471C226.964 259.387 207.96 260.804 202.793 267.389L148.448 353.407C139.279 365.076 140.53 382.663 151.198 392.582C153.866 395.082 229.548 467.931 229.548 467.931L268.89 409.419L203.376 368.66C203.376 368.66 230.882 337.987 246.718 313.482C265.889 283.809 250.553 261.971 250.553 261.971C250.553 261.971 240.134 259.554 234.382 259.471Z" fill="#709ABE"/>
<path fill-rule="evenodd" clip-rule="evenodd" d="M263.888 154.032C263.888 154.032 283.392 196.541 273.64 227.714C269.056 242.384 251.052 262.721 251.052 262.721C251.052 262.721 235.716 267.972 216.045 254.47C204.376 246.468 197.374 232.632 197.458 227.714C197.458 217.962 204.042 217.128 204.042 217.128L201.125 158.033L263.888 154.032Z" fill="#D0A4B1"/>
<path fill-rule="evenodd" clip-rule="evenodd" d="M271.724 176.62L270.14 182.455L263.222 191.04C263.222 191.04 271.807 199.875 265.306 221.713C258.804 243.551 240.884 264.472 240.884 264.472C240.884 264.472 247.552 270.89 243.801 288.393C239.467 308.064 189.123 370.911 189.123 370.911L258.137 425.672L268.973 409.502L203.459 368.743C203.459 368.743 230.965 338.154 246.802 313.565C264.472 286.226 252.97 265.805 250.969 262.721C250.969 262.721 268.973 242.384 273.557 227.714C278.808 211.211 275.724 191.54 271.724 176.62Z" fill="#9AD5E4" fill-opacity="0.4799"/>
<path d="M221.212 233.132C215.961 226.797 207.209 224.047 198.041 223.046C197.874 223.547 197.791 224.13 197.624 224.713C206.459 225.63 214.878 228.214 219.879 234.215C228.297 244.301 229.464 252.803 228.13 260.888C228.631 261.054 229.214 261.304 229.714 261.471C231.214 252.969 230.047 243.801 221.212 233.132Z" fill="#FDE8E7"/>
<path d="M245.301 201.625C252.969 210.544 260.221 218.962 275.974 216.045C276.057 215.462 276.057 214.878 276.141 214.295C260.971 217.295 254.303 209.544 246.551 200.542C237.966 190.54 228.214 179.287 204.876 181.121L203.042 182.621V182.955C203.209 182.955 203.292 182.871 203.459 182.871C227.13 180.454 236.716 191.707 245.301 201.625Z" fill="#FDE8E7"/>
<path d="M258.72 180.954C260.054 180.954 261.47 180.871 262.887 180.704C266.138 180.371 269.139 179.204 271.973 177.62C271.806 177.037 271.639 176.453 271.556 175.953C268.805 177.62 265.888 178.704 262.721 179.037C247.051 180.788 237.465 173.203 228.464 156.283L226.63 156.366C234.382 171.286 243.8 180.954 258.72 180.954Z" fill="#FDE8E7"/>
<path d="M237.632 225.464C241.55 240.467 248.384 249.969 258.053 253.553C258.136 253.553 258.303 253.636 258.386 253.636C258.72 253.219 259.053 252.719 259.47 252.219C259.22 252.136 258.97 252.052 258.636 251.969C249.551 248.552 242.967 239.466 239.216 224.963C233.381 202.792 222.796 200.292 204.125 203.292C203.958 203.292 203.792 203.376 203.625 203.376L203.708 205.043C203.958 204.959 204.208 204.959 204.459 204.876C222.546 202.125 232.131 204.376 237.632 225.464Z" fill="#FDE8E7"/>
<path fill-rule="evenodd" clip-rule="evenodd" d="M246.718 147.947C252.636 148.864 256.553 153.448 255.47 158.366L252.886 169.118C251.802 173.953 242.967 185.455 234.799 182.871C226.38 180.204 236.882 163.367 236.882 163.367L234.215 155.199C235.215 150.281 240.8 147.03 246.718 147.947Z" fill="#FAD1CB"/>
<path fill-rule="evenodd" clip-rule="evenodd" d="M252.469 156.283C252.469 156.283 242.217 157.95 235.132 153.115C227.964 148.364 229.047 152.948 229.047 152.948L231.631 163.784L225.88 166.951L225.13 175.787C225.13 175.787 228.797 175.953 233.548 173.786C238.216 171.619 239.216 171.536 243.967 167.118C248.718 162.867 252.469 156.283 252.469 156.283Z" fill="#045377" fill-opacity="0.2955"/>
<path fill-rule="evenodd" clip-rule="evenodd" d="M192.457 172.369C192.457 172.369 159.783 225.213 177.787 234.799C193.29 243.05 206.377 221.546 214.795 203.459C221.713 188.622 225.881 174.953 227.381 168.285C227.381 168.285 235.133 164.117 231.548 156.949C227.798 149.698 225.047 148.281 223.38 140.529C221.713 132.777 223.547 123.859 223.38 118.941C223.213 114.607 216.045 121.775 213.378 131.277C210.044 143.28 212.545 149.448 212.545 149.448C212.545 149.448 209.127 148.614 205.543 152.448C201.792 156.532 193.04 172.869 193.04 172.869L192.457 172.369Z" fill="#FAD1CB"/>
<path fill-rule="evenodd" clip-rule="evenodd" d="M223.38 111.356C223.38 111.356 218.046 120.691 220.129 127.693C222.63 135.861 219.629 134.028 221.38 141.446C223.38 150.198 227.798 158.949 240.8 156.699C252.219 154.699 254.803 141.362 254.47 137.028C253.886 130.694 251.136 120.942 251.136 120.942C251.136 120.942 240.134 123.275 231.965 118.191C223.88 113.107 223.38 111.356 223.38 111.356Z" fill="#FAD1CB"/>
<path fill-rule="evenodd" clip-rule="evenodd" d="M306.398 237.549C289.311 247.802 272.141 220.129 262.889 202.542C255.387 188.122 250.636 174.62 248.802 168.035C248.802 168.035 240.467 163.951 243.968 155.115C247.385 146.28 250.386 145.697 251.636 137.862C252.887 130.027 250.636 123.442 250.636 118.525C250.636 114.19 258.138 120.942 261.138 130.277C264.972 142.029 262.805 148.364 262.805 148.364C262.805 148.364 279.642 144.197 287.394 155.616C295.229 167.285 328.902 224.047 306.398 237.549Z" fill="#FAD1CB"/>
<path d="M170.285 116.024C170.285 116.024 173.536 118.858 176.536 119.025C179.204 119.108 181.371 116.524 181.371 116.524C181.371 116.524 179.704 119.692 180.204 122.025C180.621 124.359 184.371 128.61 184.371 128.61C184.371 128.61 179.787 125.193 177.87 125.109C176.036 125.026 172.286 127.443 172.286 127.443C172.286 127.443 174.786 123.942 174.203 121.775C173.536 119.442 170.285 116.024 170.285 116.024Z" stroke="#E4003B" stroke-width="1.9042" stroke-miterlimit="1.9042" stroke-linecap="round" stroke-linejoin="round"/>
<path d="M271.389 58.2619C271.389 58.2619 269.389 63.7631 270.806 67.6806C272.056 71.1813 276.474 72.5149 276.474 72.5149C276.474 72.5149 271.64 72.0148 268.972 73.7651C266.305 75.5155 262.804 82.4336 262.804 82.4336C262.804 82.4336 264.805 74.8487 263.888 72.4315C263.054 70.0144 258.137 66.5136 258.137 66.5136C258.137 66.5136 263.805 67.9306 266.222 66.0135C268.639 64.0965 271.389 58.2619 271.389 58.2619Z" stroke="#E4003B" stroke-width="1.9042" stroke-miterlimit="1.9042" stroke-linecap="round" stroke-linejoin="round"/>
<path d="M233.215 84.1006C250.136 84.9341 262.722 90.0185 263.222 97.1033C263.889 105.939 245.551 114.44 222.213 116.191C198.958 117.941 179.454 112.19 178.871 103.438C178.371 96.8533 188.79 90.4353 203.459 86.8512" stroke="#E4003B" stroke-width="1.5" stroke-miterlimit="1.9042" stroke-linecap="round" stroke-linejoin="round"/>
<path fill-rule="evenodd" clip-rule="evenodd" d="M157.199 232.632L184.872 295.895L197.041 276.974C197.041 276.974 193.79 273.39 179.371 260.138C164.784 246.801 157.199 232.632 157.199 232.632Z" fill="#045377" fill-opacity="0.2045"/>
<path fill-rule="evenodd" clip-rule="evenodd" d="M262.721 148.531L259.221 158.866L282.059 186.955C282.059 186.955 282.476 181.371 288.727 177.537C293.311 174.786 299.062 175.203 299.062 175.203C299.062 175.203 288.143 154.032 281.725 150.448C272.724 145.363 262.721 148.531 262.721 148.531Z" fill="#BA8092"/>
<path fill-rule="evenodd" clip-rule="evenodd" d="M212.294 149.281C212.294 149.281 207.377 147.197 199.292 160.283C193.457 169.535 190.123 177.037 190.123 177.037C190.123 177.037 194.624 177.453 196.791 178.87C199.292 180.537 201.542 181.954 201.542 181.954L215.712 159.366C215.712 159.366 214.962 157.033 214.045 154.699C213.128 152.365 212.294 149.281 212.294 149.281Z" fill="#BA8092"/>
<path d="M239.883 141.363C239.883 140.612 240.55 139.946 241.3 139.946C242.133 139.946 242.717 140.612 242.717 141.363C242.717 142.113 242.05 142.78 241.3 142.78C240.55 142.78 239.883 142.113 239.883 141.363Z" stroke="#384261" stroke-width="2" stroke-miterlimit="1.9042" stroke-linecap="round" stroke-linejoin="round"/>
<path d="M170.285 116.024C170.285 116.024 173.536 118.858 176.536 119.025C179.204 119.108 181.371 116.524 181.371 116.524C181.371 116.524 179.704 119.692 180.204 122.025C180.621 124.359 184.371 128.61 184.371 128.61C184.371 128.61 179.787 125.193 177.87 125.109C176.036 125.026 172.286 127.443 172.286 127.443C172.286 127.443 174.786 123.942 174.203 121.775C173.536 119.442 170.285 116.024 170.285 116.024Z" stroke="#E4003B" stroke-miterlimit="1.9042" stroke-linecap="round" stroke-linejoin="round"/>
<path d="M271.389 58.2619C271.389 58.2619 269.389 63.7631 270.806 67.6806C272.056 71.1813 276.474 72.5149 276.474 72.5149C276.474 72.5149 271.64 72.0148 268.972 73.7651C266.305 75.5155 262.804 82.4336 262.804 82.4336C262.804 82.4336 264.805 74.8487 263.888 72.4315C263.054 70.0144 258.137 66.5136 258.137 66.5136C258.137 66.5136 263.805 67.9306 266.222 66.0135C268.639 64.0965 271.389 58.2619 271.389 58.2619Z" stroke="#E4003B" stroke-miterlimit="1.9042" stroke-linecap="round" stroke-linejoin="round"/>
<path fill-rule="evenodd" clip-rule="evenodd" d="M262.721 148.531L259.221 158.866L282.059 186.955C282.059 186.955 282.476 181.371 288.727 177.537C293.311 174.786 299.062 175.203 299.062 175.203C299.062 175.203 288.143 154.032 281.725 150.448C272.724 145.363 262.721 148.531 262.721 148.531Z" fill="#D0A4B1"/>
<path fill-rule="evenodd" clip-rule="evenodd" d="M212.294 149.281C212.294 149.281 207.377 147.197 199.292 160.283C193.457 169.535 190.123 177.037 190.123 177.037C190.123 177.037 194.624 177.453 196.791 178.87C199.292 180.537 201.542 181.954 201.542 181.954L215.712 159.366C215.712 159.366 214.962 157.033 214.045 154.699C213.128 152.365 212.294 149.281 212.294 149.281Z" fill="#D0A4B1"/>
<path d="M230.298 129.444L232.215 132.861" stroke="#384261" stroke-width="2" stroke-miterlimit="1.9042" stroke-linecap="round" stroke-linejoin="round"/>
<path d="M236.799 126.693L238.716 129.61" stroke="#384261" stroke-width="2" stroke-miterlimit="1.9042" stroke-linecap="round" stroke-linejoin="round"/>
<path fill-rule="evenodd" clip-rule="evenodd" d="M231.632 121.358L234.716 118.441L235.966 121.859L231.632 121.358Z" fill="#384261"/>
<path fill-rule="evenodd" clip-rule="evenodd" d="M225.381 126.276L224.714 122.109L228.465 122.775L225.381 126.276Z" fill="#384261"/>
<path fill-rule="evenodd" clip-rule="evenodd" d="M263.222 146.197L261.805 151.448L260.638 154.699C260.638 154.699 273.557 148.864 284.976 163.784C294.311 176.037 317.066 219.962 305.48 233.299C300.479 239.05 293.895 238.3 288.727 236.383C294.395 240.05 300.396 241.217 306.397 237.549C322.317 227.964 310.065 196.791 298.812 175.203C298.896 175.203 299.146 175.203 299.146 175.203C299.146 175.203 294.478 166.285 289.477 158.95C288.727 157.783 287.893 156.366 287.393 155.616C286.226 153.865 284.809 152.532 283.309 151.448C282.809 151.031 282.309 150.615 281.809 150.365C281.392 150.115 280.975 150.031 280.559 149.781C280.308 149.698 280.142 149.614 279.892 149.531C272.223 146.197 264.889 147.864 263.388 148.281C263.305 148.281 262.805 148.364 262.805 148.364C262.805 148.364 262.972 147.531 263.222 146.197Z" fill="#9AD5E4" fill-opacity="0.4799"/>
<path fill-rule="evenodd" clip-rule="evenodd" d="M251.385 117.274C250.969 117.358 250.635 117.774 250.635 118.608C250.635 119.025 250.552 119.942 250.552 120.358C252.469 120.692 254.553 119.608 257.803 132.694C260.721 149.614 253.552 161.7 253.552 161.7C253.552 161.7 271.89 178.954 284.476 195.624C290.727 203.876 298.228 214.295 298.228 214.295C298.228 214.295 293.561 202.042 283.725 189.206C267.639 168.202 259.387 158.866 259.387 158.866L260.887 154.699L262.888 148.531C262.888 148.531 265.055 142.196 261.221 130.444C258.637 122.775 253.302 116.941 251.385 117.274Z" fill="#9AD5E4" fill-opacity="0.4799"/>
<path fill-rule="evenodd" clip-rule="evenodd" d="M274.641 430.173C276.808 435.257 278.475 442.676 278.308 453.261C278.308 456.512 278.141 459.596 277.891 462.596C278.391 460.763 278.725 459.012 278.725 459.012C278.725 459.012 286.143 439.592 285.143 436.258C284.476 434.007 278.475 431.59 274.641 430.173Z" fill="white" fill-opacity="0.5001"/>
<path opacity="0.52" fill-rule="evenodd" clip-rule="evenodd" d="M161.284 166.034C156.866 165.868 152.282 166.785 148.031 168.868C142.946 171.369 137.112 177.537 131.027 188.956C115.524 217.879 86.1846 284.559 86.1846 284.559L105.522 291.394C112.773 263.888 130.277 202.459 147.864 179.537C155.866 169.202 169.702 171.119 181.371 175.453C176.12 169.619 168.785 166.285 161.284 166.034Z" fill="white" fill-opacity="0.7147"/>
<path fill-rule="evenodd" clip-rule="evenodd" d="M97.0194 304.23L96.8527 304.647C96.8527 304.647 64.1792 321.817 67.0131 325.651C68.18 327.235 74.4313 327.735 81.1827 327.902C79.6824 326.568 78.9323 325.068 79.349 323.234C81.016 315.566 97.1861 304.814 97.1861 304.814L97.0194 304.23Z" fill="white" fill-opacity="0.3245"/>
<path fill-rule="evenodd" clip-rule="evenodd" d="M102.104 290.144C102.104 290.144 116.107 296.812 120.775 302.313C124.276 306.481 126.443 311.232 126.443 311.232L131.277 300.313L102.104 290.144Z" fill="#045377" fill-opacity="0.2955"/>
<path fill-rule="evenodd" clip-rule="evenodd" d="M243.467 446.01C243.467 446.01 253.802 434.424 260.304 431.423C265.305 429.173 270.472 428.423 270.472 428.423L261.304 420.838L243.467 446.01Z" fill="#045377" fill-opacity="0.2955"/>
<path d="M182.788 104.271C182.788 104.271 208.627 110.106 217.129 132.361C229.048 163.451 239.217 182.621 262.805 179.954C286.393 177.287 298.812 134.861 298.812 134.861" stroke="#FDE8E7" stroke-width="1.9042" stroke-miterlimit="1.9042" stroke-linecap="round" stroke-linejoin="round"/>
<path d="M228.464 131.611C228.464 131.611 221.796 147.864 209.876 159.2C196.707 171.702 177.12 178.954 153.281 170.535" stroke="#FDE8E7" stroke-width="1.9042" stroke-miterlimit="1.9042" stroke-linecap="round" stroke-linejoin="round"/>
<path fill-rule="evenodd" clip-rule="evenodd" d="M225.88 145.614L224.296 138.612C224.296 138.612 223.546 138.946 224.38 138.612C225.547 138.112 226.964 137.862 228.381 138.195C232.131 138.862 234.632 142.446 233.882 146.197C233.382 148.864 231.465 150.865 229.047 151.532C228.047 151.782 228.964 151.448 228.964 151.448L225.88 145.614Z" fill="#E76586"/>
<path fill-rule="evenodd" clip-rule="evenodd" d="M245.051 130.861C245.635 127.777 248.135 125.609 251.052 125.276C251.719 125.193 251.219 125.359 251.219 125.359L251.802 132.944L250.719 138.946C250.719 138.946 251.552 139.112 250.552 138.946C246.885 138.195 244.384 134.611 245.051 130.861Z" fill="#E76586"/>
<path d="M259.554 158.616C259.554 158.616 265.889 144.863 262.388 133.111C258.887 121.358 253.886 116.607 251.135 117.274C249.135 117.774 250.552 121.108 251.219 124.859C252.552 131.944 251.636 139.195 249.135 144.113C246.634 149.031 241.467 156.616 243.634 161.867C244.884 165.951 248.468 166.701 248.468 166.701C248.468 166.701 274.89 252.386 305.48 238.049C322.4 230.131 310.481 197.208 298.062 173.619C289.31 157.032 283.142 151.115 278.891 149.031C272.223 145.78 262.638 148.447 262.638 148.447" stroke="#384261" stroke-width="1.5" stroke-miterlimit="1.9042" stroke-linecap="round" stroke-linejoin="round"/>
<path d="M227.381 168.452C227.381 168.452 234.132 164.951 232.382 159.116C230.715 153.282 224.38 146.614 224.047 137.279C223.713 127.943 225.297 122.109 223.63 119.608C221.963 117.108 217.712 119.608 214.962 125.776C206.877 143.613 215.962 159.617 215.962 159.617" stroke="#384261" stroke-width="1.5" stroke-miterlimit="1.9042" stroke-linecap="round" stroke-linejoin="round"/>
<path d="M217.045 140.279C217.045 140.279 217.962 121.608 223.713 120.775" stroke="#384261" stroke-width="1.5" stroke-miterlimit="1.9042" stroke-linecap="round" stroke-linejoin="round"/>
<path d="M227.464 168.368C227.464 168.368 207.459 240.633 182.871 236.966C161.45 233.715 178.703 198.375 184.955 186.372C189.956 176.87 199.208 157.866 205.042 152.448C209.126 148.697 212.21 149.448 212.21 149.448" stroke="#384261" stroke-width="1.5" stroke-miterlimit="1.9042" stroke-linecap="round" stroke-linejoin="round"/>
<path d="M215.962 159.7C215.962 159.7 203.876 176.87 196.041 190.039C188.206 203.209 184.622 211.711 184.622 211.711" stroke="#384261" stroke-width="1.5" stroke-miterlimit="1.9042" stroke-linecap="round" stroke-linejoin="round"/>
<path d="M265.472 214.878C261.305 218.962 254.137 223.713 245.552 219.712C234.549 214.628 236.966 201.042 236.966 201.042" stroke="#384261" stroke-width="1.5" stroke-miterlimit="1.9042" stroke-linecap="round" stroke-linejoin="round"/>
<path d="M220.88 204.376C218.713 205.96 215.879 207.543 212.795 208.46" stroke="#384261" stroke-width="1.5" stroke-miterlimit="1.9042" stroke-linecap="round" stroke-linejoin="round"/>
<path d="M198.541 273.807L146.363 356.991" stroke="#384261" stroke-width="1.5" stroke-miterlimit="1.9042" stroke-linecap="round" stroke-linejoin="round"/>
<path d="M156.199 230.131L185.205 295.395" stroke="#384261" stroke-width="1.5" stroke-miterlimit="1.9042" stroke-linecap="round" stroke-linejoin="round"/>
<path d="M298.562 214.628C298.562 214.628 289.31 196.624 281.558 186.205C273.89 175.703 259.554 158.95 259.554 158.95" stroke="#384261" stroke-width="1.5" stroke-miterlimit="1.9042" stroke-linecap="round" stroke-linejoin="round"/>
<path d="M250.636 120.358C257.471 119.525 258.887 139.946 258.887 139.946" stroke="#384261" stroke-width="1.5" stroke-miterlimit="1.9042" stroke-linecap="round" stroke-linejoin="round"/>
<path d="M221.963 74.5987C230.298 66.9304 238.216 63.4297 242.8 66.347C250.302 71.1813 246.134 91.1855 233.465 111.19C230.964 115.191 228.297 118.858 225.547 122.192C214.628 135.445 202.875 142.53 196.874 138.695C189.789 134.194 193.623 115.524 204.626 96.77" stroke="#E4003B" stroke-width="1.5" stroke-miterlimit="1.9042" stroke-linecap="round" stroke-linejoin="round"/>
</svg>
