<svg width="199" height="59" viewBox="0 0 199 59" fill="none" xmlns="http://www.w3.org/2000/svg">
<g clip-path="url(#clip0)">
<path d="M23.3378 41.5593H15.7082V49.3685H7.62968V41.5593H0V33.7501H7.62968V25.9409H15.7082V33.7501H23.3378V41.5593Z" fill="#6ECAF3"/>
<path d="M42.4568 0H32.6728C30.9674 8.61705 25.3124 11.7587 17.2339 11.7587H15.708V20.645H29.8902V58.8832H42.4568V0Z" fill="#6ECAF3"/>
<path fill-rule="evenodd" clip-rule="evenodd" d="M47.7533 58.8832H34.3789V0H47.7533V58.8832Z" fill="#E4003A"/>
<path fill-rule="evenodd" clip-rule="evenodd" d="M70.5521 58.8832H57.1777V0H70.5521V58.8832Z" fill="#FAD2CB"/>
<path d="M104.302 18.5806H93.4414V36.9816H96.6728V21.7222H101.071V36.9816H104.302V18.5806ZM105.649 37.1611C108.521 37.1611 110.047 35.4556 110.406 31.7754C110.676 30.07 110.765 27.2874 110.855 25.941H113.368V36.9816H116.42V23.0686H107.803C107.713 25.8512 107.444 29.5314 107.265 31.2369C107.085 33.1218 106.816 34.199 105.469 34.199V37.1611H105.649ZM128.717 22.7096C125.666 22.7096 123.87 24.6843 123.87 28.0952V28.4543H122.075V23.0686H119.113V36.9816H122.075V31.3266H123.87V31.8652C123.87 35.3659 125.666 37.2508 128.717 37.2508C131.769 37.2508 133.565 35.2761 133.565 31.8652V28.0952C133.565 24.6843 131.769 22.7096 128.717 22.7096ZM130.513 31.8652C130.513 33.4809 129.884 34.2887 128.717 34.2887C127.551 34.2887 126.922 33.5706 126.922 31.8652V28.0952C126.922 26.4795 127.551 25.7614 128.717 25.7614C129.884 25.7614 130.513 26.4795 130.513 28.0952V31.8652ZM140.476 37.2508C143.528 37.2508 145.413 35.3659 145.503 32.0447H142.361C142.271 33.4809 141.733 34.2887 140.566 34.2887C139.399 34.2887 138.771 33.5706 138.771 32.0447V27.8259C138.771 26.3898 139.399 25.6717 140.566 25.6717C141.643 25.6717 142.271 26.3898 142.361 27.8259H145.503C145.413 24.5945 143.708 22.7096 140.566 22.7096C137.514 22.7096 135.719 24.5945 135.719 27.8259V32.0447C135.629 35.3659 137.424 37.2508 140.476 37.2508ZM157.62 37.3406C160.762 37.3406 162.647 35.3659 162.647 31.9549V28.185C162.647 24.6843 160.762 22.7993 157.62 22.7993C154.479 22.7993 152.594 24.7741 152.594 28.185V31.9549C152.594 35.3659 154.479 37.3406 157.62 37.3406ZM157.62 34.2887C156.454 34.2887 155.735 33.5706 155.735 31.8652V28.0952C155.735 26.3898 156.454 25.6717 157.62 25.6717C158.787 25.6717 159.505 26.3898 159.505 28.0952V31.8652C159.505 33.5706 158.877 34.2887 157.62 34.2887ZM163.275 40.0334H166.238V36.9816H172.97V40.0334H175.932V34.1092H174.316V23.0686H165.789C165.699 25.4024 165.609 27.7362 165.43 30.07C165.34 31.5959 165.071 33.2116 164.263 34.199H163.186V40.0334H163.275ZM167.943 34.1092C168.302 33.1218 168.482 32.0447 168.571 30.7881C168.661 29.1724 168.751 27.5567 168.751 25.941H171.354V34.1092H167.943ZM177.547 36.9816H180.689L182.394 33.2116C183.023 31.8652 184.1 28.544 184.19 28.0055H184.279C184.19 29.5314 184.19 31.5959 184.19 32.9423V37.0713H187.152V23.0686H184.01L182.305 27.1079C181.766 28.544 180.779 31.3266 180.51 32.0447H180.42C180.42 30.2495 180.42 28.9928 180.42 27.7362V23.0686H177.458V36.9816H177.547ZM195.948 23.0686V28.4543H192.897V23.0686H189.845V36.9816H192.897V31.3266H195.948V36.9816H199V23.0686H195.948Z" fill="#3C3C3B"/>
</g>
<defs>
<clipPath id="clip0">
<rect width="199" height="58.8832" fill="white"/>
</clipPath>
</defs>
</svg>
